<svg id="Calque_1" data-name="Calque 1" xmlns="http://www.w3.org/2000/svg" viewBox="0 0 40.48 74.75"><defs><style>.cls-1{fill:#389a4a;}.cls-2{fill:#33793e;}.cls-3{fill:#ce2335;}.cls-4{fill:#ccc;}.cls-5{fill:#676767;}</style></defs><title>Logo final copie</title><path class="cls-1" d="M32.36,6.22A4.49,4.49,0,0,1,34.88,9.5c.69,3-.76,7.09-3.9,10.79-1.07,1.26-2.27,2.55-3.55,3.92a104.48,104.48,0,0,0-7.19,8.34c2.2-7.92,4.27-15.75,4.27-20.21A27.83,27.83,0,0,0,24.31,9C26.85,6.07,29.75,5.06,32.36,6.22Z" transform="translate(-0.02 0)"/><path class="cls-1" d="M7.46,21.7c-2.88-3.28-4.22-6.86-3.58-9.56a4,4,0,0,1,2.31-2.9c2.38-1,5.06-.14,7.38,2.45a23.78,23.78,0,0,0-.18,3c0,4,1.9,10.88,3.92,17.9a93.48,93.48,0,0,0-6.6-7.38C9.55,24,8.44,22.82,7.46,21.7Z" transform="translate(-0.02 0)"/><path class="cls-2" d="M17.25,33.69l-.52-1.87c-2.15-7.69-4.58-16.41-4.58-20.65C12.15,4.39,14.75,0,18.78,0s6.63,4.38,6.63,11.17c0,4.24-2.43,13-4.58,20.65l-.52,1.87Q18.78,38.06,17.25,33.69Z" transform="translate(-0.02 0)"/><path class="cls-3" d="M23.05,55.66a9.11,9.11,0,0,0,1.16-.88,24.16,24.16,0,0,0,3.16-3.4,10.84,10.84,0,0,0,2.38-6.5,11,11,0,0,0-22,0,9.2,9.2,0,0,0,.09,1.29c.52,3.65,3.15,6.57,5.78,8.91a12.92,12.92,0,0,0,1.31.94A40.27,40.27,0,0,1,23.05,55.66Z" transform="translate(-0.02 0)"/><path class="cls-4" d="M17.7,58.22c.91,1,1.09,3.56,1.44,5.89a5.85,5.85,0,0,0,1.53,3.38c.11-.09-.56-2-.78-4.15a10.55,10.55,0,0,1,.43-4.28,7.57,7.57,0,0,1,.85-1.66A9.53,9.53,0,0,1,22.64,56l.41-.28a40.27,40.27,0,0,0-8.11.37l.41.27A7.88,7.88,0,0,1,17.7,58.22Z" transform="translate(-0.02 0)"/><path class="cls-5" d="M30.82,60.22c-.91-.3-1.51.3-1.81,1.21s.3,1.51,1.21,1.81c5.14,1.21,7.25,3,7.25,3.63,0,1.51-6,4.83-17.22,4.83S3,68.7,3,66.87c0-.91,1.81-2.42,6.35-3.63a1.54,1.54,0,0,0-.6-3C3,61.75,0,63.87,0,66.89,0,72,10.29,74.75,20.26,74.75S40.5,72,40.5,66.89C40.49,64.22,36.86,61.77,30.82,60.22Z" transform="translate(-0.02 0)"/></svg>