<svg id="Calque_1" data-name="Calque 1" xmlns="http://www.w3.org/2000/svg" viewBox="0 0 166.46 74.76"><defs><style>.cls-1{font-size:55.4px;font-family:SimplyRounded, Simply Rounded;}.cls-1,.cls-6{fill:#676767;}.cls-2{fill:#389a4a;}.cls-3{fill:#33793e;}.cls-4{fill:#ce2335;}.cls-5{fill:#ccc;}</style></defs><title>Logo final</title><text class="cls-1" transform="translate(45.9 54.72)">Rady</text><path class="cls-2" d="M234.25,390a4.49,4.49,0,0,1,2.52,3.28c.69,3.05-.76,7.09-3.9,10.79-1.07,1.26-2.27,2.55-3.55,3.92a104.48,104.48,0,0,0-7.19,8.34c2.2-7.92,4.27-15.75,4.27-20.21a27.83,27.83,0,0,0-.2-3.36C228.74,389.85,231.64,388.84,234.25,390Z" transform="translate(-201.89 -383.78)"/><path class="cls-2" d="M209.35,405.48c-2.88-3.28-4.22-6.86-3.58-9.56a4,4,0,0,1,2.31-2.9c2.38-1,5.06-.14,7.38,2.45a23.78,23.78,0,0,0-.18,3c0,3.95,1.9,10.88,3.92,17.9a93.48,93.48,0,0,0-6.6-7.38C211.44,407.75,210.33,406.6,209.35,405.48Z" transform="translate(-201.89 -383.78)"/><path class="cls-3" d="M219.14,417.47l-.52-1.87c-2.15-7.69-4.58-16.41-4.58-20.65,0-6.78,2.6-11.17,6.63-11.17s6.63,4.38,6.63,11.17c0,4.24-2.43,13-4.58,20.65l-.52,1.87Q220.67,421.84,219.14,417.47Z" transform="translate(-201.89 -383.78)"/><path class="cls-4" d="M224.94,439.44a9.11,9.11,0,0,0,1.16-.88,24.16,24.16,0,0,0,3.16-3.4,10.84,10.84,0,0,0,2.38-6.5,11,11,0,0,0-22,0,9.2,9.2,0,0,0,.09,1.29c.52,3.65,3.15,6.57,5.78,8.91a12.92,12.92,0,0,0,1.31.94A40.27,40.27,0,0,1,224.94,439.44Z" transform="translate(-201.89 -383.78)"/><path class="cls-5" d="M219.59,442c.91,1,1.09,3.56,1.44,5.89a5.85,5.85,0,0,0,1.53,3.38c.11-.09-.56-2-.78-4.15a10.55,10.55,0,0,1,.43-4.28,7.57,7.57,0,0,1,.85-1.66,9.53,9.53,0,0,1,1.47-1.43l.41-.28a40.27,40.27,0,0,0-8.11.37l.41.27A7.88,7.88,0,0,1,219.59,442Z" transform="translate(-201.89 -383.78)"/><path class="cls-6" d="M232.71,444c-.91-.3-1.51.3-1.81,1.21s.3,1.51,1.21,1.81c5.14,1.21,7.25,3,7.25,3.63,0,1.51-6,4.83-17.22,4.83s-17.22-3-17.22-4.83c0-.91,1.81-2.42,6.35-3.63a1.54,1.54,0,0,0-.6-3c-5.74,1.51-8.76,3.63-8.76,6.65,0,5.14,10.27,7.86,20.24,7.86s20.24-2.72,20.24-7.86C242.38,448,238.75,445.55,232.71,444Z" transform="translate(-201.89 -383.78)"/></svg>