<?xml version="1.0" encoding="utf-8"?>
<!-- Generator: Adobe Illustrator 20.1.0, SVG Export Plug-In . SVG Version: 6.00 Build 0)  -->
<svg version="1.1" id="Calque_1" xmlns="http://www.w3.org/2000/svg" xmlns:xlink="http://www.w3.org/1999/xlink" x="0px" y="0px"
	 viewBox="0 0 1047.3 472.9" style="enable-background:new 0 0 1047.3 472.9;" xml:space="preserve">
<style type="text/css">
	.st0{enable-background:new    ;}
	.st1{fill:#676867;}
	.st2{fill:#389A4B;}
	.st3{fill:#347B40;}
	.st4{fill:#CE2335;}
	.st5{fill:#CCCCCB;}
</style>
<title>Logo final</title>
<g class="st0">
	<path class="st1" d="M476.4,306.6c3.8,6.4,4.7,13.2,2.9,20.4c-1.8,7.1-5.9,12.5-12.3,16.3l-0.5,0.3c-6.4,3.7-13.1,4.6-20.2,2.7
		c-7.2-1.8-12.7-5.9-16.4-12.3l-41.1-69.7l-32.3,0.2V320c0,7.5-2.6,13.9-7.9,19.2c-5.4,5.4-11.8,8-19.3,8h-0.5
		c-7.6,0-14.1-2.7-19.3-8c-5.4-5.2-8-11.6-8-19.2V140.5c0-7.6,2.7-14.2,8-19.7c5.5-5.4,12-8,19.7-8H394c3.1,0,6.5,0.3,10.3,0.9
		l1.5,0.2c18.3,2.9,33.5,11.3,45.7,25.3c12.3,14.3,18.5,30.8,18.5,49.6c0,15.2-4.8,30.2-14.4,45.2c-3.4,5.5-7.8,10.4-13.2,14.9
		L476.4,306.6z M356.6,222.6h27c9.4,0,17.3-3.5,23.8-10.4c6.6-7,9.9-15.3,9.9-25.2c0-9.8-3.3-18.2-9.9-25.2
		c-6.5-7.1-14.4-10.6-23.8-10.6h-27V222.6z"/>
	<path class="st1" d="M497.5,261c0-24,8-44.4,24.1-61.3c16.1-16.9,35.5-25.3,58.2-25.3c19.2,0,32.5,8.4,39.9,25.3v-0.2
		c0-5.5,1.9-10.2,5.8-14c3.9-3.9,8.6-5.8,14-5.8h14c5.6,0,10.3,1.9,14.2,5.8c4,4,6,8.7,6,14.2v136.7c0,3.1-1.1,5.6-3.3,7.7
		c-2.2,2.2-4.7,3.3-7.7,3.3h-22.6c-3.4,0-8-3.1-13.9-9.4c-2.5-2.6-5.5-4.2-8.9-4.6c-3.5-0.5-6.8,0.3-9.8,2.2
		c-12.1,7.9-21.4,11.8-27.9,11.8c-22.7,0-42.1-8.4-58.2-25.3C505.5,305.2,497.5,284.8,497.5,261z M548.8,259.6
		c0,12.9,3.4,23.9,10.3,33c7,9,15.3,13.5,25.2,13.5c5.8,0.9,11.6,0.4,17.5-1.5c11.6-4,17.6-13.1,18-27.2v-42.8
		c-2.6-7.1-8.9-12.5-18.8-16.4c-11.4-4.4-22.8-3.9-34.2,1.7c-5.5,2.6-9.9,7.5-13.2,14.7c-3.1,6.8-4.6,14.5-4.6,22.9V259.6z"/>
	<path class="st1" d="M818.2,185.3v-56.5c0-7.3,2.6-13.6,7.9-18.8c5.2-5.2,11.5-7.9,18.8-7.9h0.7c7.3,0,13.6,2.6,18.8,7.9
		c5.2,5.2,7.9,11.5,7.9,18.8v207.6c0,3.1-1.1,5.7-3.3,7.9c-2.2,2.1-4.7,3.1-7.7,3.1h-32.2c-3.1,0-5.6-1-7.7-3.1
		c-2.2-2.2-3.3-4.7-3.3-7.7v-0.2c-12.4,7.3-25.7,11-39.9,11c-22.7,0-42.1-8.4-58.2-25.3C704,305.2,696,284.8,696,261
		c0-24,8-44.4,24.1-61.3c16.1-16.9,35.5-25.3,58.2-25.3C792.5,174.4,805.8,178,818.2,185.3z M747.3,259.6c0,12.9,3.4,23.9,10.3,33
		c7,9,15.3,13.5,25.2,13.5c5.8,0.9,11.6,0.4,17.5-1.5c11.6-3.9,17.6-12.9,18-27.2v-42.8c-2.6-7.1-8.9-12.5-18.8-16.4
		c-11.4-4.4-22.8-3.9-34.2,1.7c-5.5,2.6-9.9,7.5-13.2,14.7c-3.1,6.8-4.6,14.5-4.6,22.9V259.6z"/>
	<path class="st1" d="M1022.9,179c8.4,0,15.1,3.4,19.9,10.1c4.8,6.8,5.8,14.2,3.1,22.1c-34.6,98.9-52.3,149.8-53.2,152.6
		c-5.8,18.9-16.3,33.6-31.3,44c-16.4,11.3-35,14.8-55.8,10.6c-2.4-0.5-5.3-1.4-8.7-2.9c-8.1-3.5-12.2-9.8-12.2-18.7v-0.3
		c0-5.6,1.9-10.3,5.8-14.2c3.9-4,8.6-6,14-6c4.9-0.1,9.6-1.3,14-3.4c10.8-5.2,16.3-17.5,16.3-36.8v-0.9
		c-4.1-21-19.7-61.7-46.9-122.2c-3.7-8-3.1-15.7,1.7-23.1c4.8-7.3,11.6-11,20.4-11h4.3c5.2,0,10,1.5,14.2,4.6c4.2,3,7.1,7,8.7,12
		l33.4,101.1c3.4-15.4,13-48.9,28.8-100.6c1.6-5.1,4.5-9.2,8.7-12.3c4.3-3.2,9.1-4.8,14.4-4.8H1022.9z"/>
</g>
<path class="st2" d="M204.6,39.3c8.4,3.9,14.3,11.7,15.9,20.8c4.4,19.3-4.8,44.9-24.7,68.3c-6.8,8-14.4,16.1-22.5,24.8
	C157.2,170,142,187.6,127.8,206c13.9-50.1,27-99.6,27-127.9c0-7.1-0.4-14.2-1.3-21.3C169.7,38.4,188.1,32,204.6,39.3z"/>
<path class="st2" d="M47.1,137.3c-18.2-20.8-26.7-43.4-22.6-60.5c1.6-8.1,7-15,14.6-18.3c15.1-6.3,32-0.9,46.7,15.5
	c-0.8,6.3-1.2,12.6-1.1,19c0,25,12,68.8,24.8,113.2c-13.1-16.3-27-31.9-41.8-46.7C60.3,151.6,53.3,144.4,47.1,137.3z"/>
<path class="st3" d="M109,213.1l-3.3-11.8c-13.6-48.6-29-103.8-29-130.6c0-42.9,16.5-70.7,42-70.7s41.9,27.7,41.9,70.7
	c0,26.8-15.4,82.2-29,130.6l-3.3,11.8C121.9,231.6,115.5,231.6,109,213.1z"/>
<path class="st4" d="M145.7,352.1c2.6-1.7,5-3.5,7.3-5.6c7.3-6.5,14-13.7,20-21.5c9.4-11.7,14.7-26.1,15.1-41.1
	c0-38.4-31.2-69.6-69.6-69.6s-69.6,31.2-69.6,69.6c0,2.7,0.2,5.5,0.6,8.2c3.3,23.1,19.9,41.6,36.6,56.4c2.6,2.2,5.4,4.1,8.3,5.9
	C111.3,351.9,128.5,351.1,145.7,352.1z"/>
<path class="st5" d="M111.8,368.3c5.8,6.3,6.9,22.5,9.1,37.3c0.8,8,4.2,15.5,9.7,21.4c0.7-0.6-3.5-12.7-4.9-26.3
	c-1-9.1,0-18.3,2.7-27.1c1.4-3.7,3.2-7.2,5.4-10.5c2.8-3.3,5.9-6.4,9.3-9l2.6-1.8c-17.1-1-34.3-0.2-51.3,2.3l2.6,1.7
	C102.7,359.4,107.7,363.4,111.8,368.3z"/>
<path class="st1" d="M194.9,381c-5.8-1.9-9.6,1.9-11.5,7.7c-1.9,5.8,1.9,9.6,7.7,11.5c32.5,7.7,45.9,19,45.9,23
	c0,9.6-38,30.6-108.9,30.6S19,434.6,19,423c0-5.8,11.5-15.3,40.2-23c5.1-1.7,7.9-7.2,6.3-12.3c-1.4-4.3-5.6-7.1-10.1-6.7
	C19.1,390.6,0,404.1,0,423.2c0,32.5,65,49.7,128,49.7s128-17.2,128-49.7C256,406.3,233.1,390.8,194.9,381z"/>
</svg>
