<svg id="Capa_1" data-name="Capa 1" xmlns="http://www.w3.org/2000/svg" viewBox="0 0 298.58 114.2"><defs><style>.cls-1{font-size:106.31px;font-family:SimplyRounded, Simply Rounded;}.cls-1,.cls-6{fill:#666;}.cls-2{fill:#359800;}.cls-3{fill:#307701;}.cls-4{fill:#ce0031;}.cls-5{fill:#ccc;}</style></defs><title>Logo final</title><text class="cls-1" transform="translate(67.22 90.38)">Rady</text><path class="cls-2" d="M241.92,252.69a5.78,5.78,0,0,1,3.25,4.22c.89,3.93-1,9.12-5,13.89-1.37,1.62-2.92,3.29-4.57,5.05a134.5,134.5,0,0,0-9.26,10.73c2.83-10.2,5.5-20.27,5.5-26a35.82,35.82,0,0,0-.25-4.33C234.83,252.49,238.57,251.19,241.92,252.69Z" transform="translate(-200.27 -228.92)"/><path class="cls-2" d="M209.88,272.61c-3.7-4.23-5.43-8.83-4.61-12.31a5.15,5.15,0,0,1,3-3.74c3.07-1.33,6.51-.18,9.5,3.15a30.61,30.61,0,0,0-.23,3.83c0,5.08,2.44,14,5,23a120.34,120.34,0,0,0-8.49-9.51C212.56,275.52,211.14,274,209.88,272.61Z" transform="translate(-200.27 -228.92)"/><path class="cls-3" d="M222.47,288l-.67-2.41c-2.76-9.9-5.9-21.13-5.9-26.59,0-8.73,3.35-14.38,8.54-14.38S233,250.31,233,259c0,5.46-3.13,16.69-5.9,26.59l-.67,2.41Q224.44,293.66,222.47,288Z" transform="translate(-200.27 -228.92)"/><path class="cls-4" d="M229.94,316.33a11.72,11.72,0,0,0,1.49-1.13,31.1,31.1,0,0,0,4.06-4.38,14,14,0,0,0,3.06-8.36,14.16,14.16,0,0,0-28.31,0,11.84,11.84,0,0,0,.12,1.66c.67,4.7,4.06,8.46,7.44,11.47a16.63,16.63,0,0,0,1.69,1.2A51.85,51.85,0,0,1,229.94,316.33Z" transform="translate(-200.27 -228.92)"/><path class="cls-5" d="M223.05,319.61c1.17,1.27,1.4,4.59,1.85,7.58a7.52,7.52,0,0,0,2,4.34c.14-.11-.73-2.54-1-5.35a13.59,13.59,0,0,1,.55-5.51,9.75,9.75,0,0,1,1.1-2.13,12.27,12.27,0,0,1,1.9-1.85l.53-.36a51.85,51.85,0,0,0-10.45.47l.53.34A10.14,10.14,0,0,1,223.05,319.61Z" transform="translate(-200.27 -228.92)"/><path class="cls-6" d="M239.94,322.24c-1.17-.39-1.94.39-2.33,1.56s.39,1.94,1.56,2.33c6.61,1.56,9.34,3.89,9.34,4.67,0,1.94-7.78,6.22-22.17,6.22s-22.17-3.89-22.17-6.22c0-1.17,2.33-3.11,8.17-4.67a2,2,0,1,0-.78-3.89c-7.39,1.94-11.28,4.67-11.28,8.56,0,6.61,13.22,10.11,26.06,10.11s26.06-3.5,26.06-10.11C252.39,327.3,247.72,324.19,239.94,322.24Z" transform="translate(-200.27 -228.92)"/></svg>