<?xml version="1.0" encoding="utf-8"?>
<!-- Generator: Adobe Illustrator 20.1.0, SVG Export Plug-In . SVG Version: 6.00 Build 0)  -->
<svg version="1.1" id="Calque_1" xmlns="http://www.w3.org/2000/svg" xmlns:xlink="http://www.w3.org/1999/xlink" x="0px" y="0px"
	 viewBox="0 0 346.8 640" style="enable-background:new 0 0 346.8 640;" xml:space="preserve">
<style type="text/css">
	.st0{fill:#389A4B;}
	.st1{fill:#347A3F;}
	.st2{fill:#CE2335;}
	.st3{fill:#CCCCCB;}
	.st4{fill:#676867;}
</style>
<title>Logo final copie</title>
<path class="st0" d="M277.1,53.3c11.3,5.3,19.4,15.8,21.6,28.1c5.9,25.7-6.5,60.7-33.4,92.4c-9.2,10.8-19.4,21.8-30.4,33.6
	c-21.8,22.7-42.3,46.5-61.6,71.4c18.8-67.8,36.6-134.8,36.6-173c0-9.6-0.6-19.1-1.7-28.6C229.9,52,254.7,43.3,277.1,53.3z"/>
<path class="st0" d="M63.9,185.8c-24.7-28.1-36.1-58.7-30.7-81.9c2.1-11,9.5-20.3,19.8-24.8c20.4-8.6,43.3-1.2,63.2,21
	c-1.1,8.5-1.6,17.1-1.5,25.7c0,34.2,16.3,93.2,33.6,153.3c-17.7-22-36.6-43.1-56.5-63.2C81.8,205.5,72.3,195.4,63.9,185.8z"/>
<path class="st1" d="M147.7,288.4l-4.5-16C124.8,206.6,104,131.9,104,95.6c0-58,22.3-95.6,56.8-95.6s56.8,37.5,56.8,95.6
	c0,36.3-20.8,111.3-39.2,176.8l-4.5,16C165.2,313.4,156.4,313.4,147.7,288.4z"/>
<path class="st2" d="M197.4,476.6c3.5-2.2,6.8-4.8,9.9-7.5c9.9-8.8,19-18.6,27.1-29.1c12.7-15.8,19.8-35.4,20.4-55.7
	c0-52-42.2-94.2-94.2-94.2s-94.2,42.2-94.2,94.2c0,3.7,0.3,7.4,0.8,11c4.5,31.3,27,56.3,49.5,76.3c3.6,2.9,7.3,5.6,11.2,8
	C150.8,476.3,174.1,475.2,197.4,476.6z"/>
<path class="st3" d="M151.5,498.5c7.8,8.6,9.3,30.5,12.3,50.4c1.1,10.8,5.7,21,13.1,28.9c0.9-0.8-4.8-17.1-6.7-35.5
	c-1.3-12.3,0-24.8,3.7-36.6c1.8-5,4.3-9.8,7.3-14.2c3.8-4.4,8-8.5,12.6-12l3.5-2.4c-23.2-1.3-46.5-0.2-69.4,3.2l3.5,2.3
	C139.1,486.5,145.9,491.9,151.5,498.5z"/>
<path class="st4" d="M263.9,515.6c-7.8-2.6-12.9,2.6-15.5,10.4c-2.6,7.8,2.6,12.9,10.4,15.5c44,10.4,62.1,25.7,62.1,31.1
	c0,12.9-51.4,41.4-147.4,41.4S25.7,588.2,25.7,572.5c0-7.8,15.5-20.7,54.4-31.1c6.9-2.2,10.7-9.7,8.5-16.6
	c-1.9-5.8-7.5-9.6-13.6-9.1C25.7,528.7,0,546.8,0,572.7C0,616.5,88.1,640,173.5,640s173.3-23.5,173.3-67.3
	C346.7,549.8,315.6,528.9,263.9,515.6z"/>
</svg>
